<svg width="59" height="60" viewBox="0 0 59 60" fill="none" xmlns="http://www.w3.org/2000/svg">
<g clip-path="url(#clip0_12051_124)">
<path fill-rule="evenodd" clip-rule="evenodd" d="M29.4657 10.7281C39.63 10.7281 47.8695 18.9834 47.8695 29.1666C47.8695 35.9067 44.2607 41.802 38.8732 45.018C37.7117 45.7115 37.0511 46.8754 37.0511 48.2301V49.7918H21.8802V48.2301C21.8802 46.875 21.2197 45.7115 20.0582 45.018C14.6707 41.802 11.0616 35.9067 11.0616 29.1666C11.0616 18.9834 19.3014 10.7281 29.4657 10.7281ZM34.3353 57.4249H24.5958C25.0864 58.9174 26.4931 60 28.1423 60H30.7892C32.4383 60 33.8445 58.9169 34.3353 57.4249ZM41.9545 9.50741C41.8112 9.75517 41.5756 9.93578 41.2995 10.0095C41.0233 10.0833 40.7293 10.0441 40.4819 9.9006C39.967 9.6018 39.7914 8.9412 40.0895 8.42525L42.476 4.28417C42.7741 3.76822 43.4335 3.59218 43.9485 3.89098C44.1958 4.03451 44.3761 4.27057 44.4497 4.54724C44.5233 4.82391 44.4842 5.11854 44.341 5.36633L41.9545 9.50741ZM18.8416 8.42525C19.14 8.9412 18.9642 9.60168 18.4492 9.9006C18.2019 10.0441 17.9078 10.0833 17.6316 10.0095C17.3555 9.93578 17.1199 9.75517 16.9766 9.50741L14.5902 5.36633C14.5192 5.24364 14.4731 5.10816 14.4545 4.96762C14.4358 4.82707 14.445 4.68422 14.4814 4.54723C14.5178 4.41023 14.5809 4.28176 14.6669 4.16916C14.7529 4.05656 14.8601 3.96204 14.9826 3.89098C15.1051 3.81993 15.2403 3.77373 15.3806 3.75504C15.5208 3.73634 15.6634 3.74551 15.8002 3.78202C15.9369 3.81853 16.0651 3.88167 16.1775 3.96783C16.2899 4.05399 16.3842 4.16148 16.4552 4.28417L18.8416 8.42525ZM30.5458 5.86401C30.5458 6.46172 30.0623 6.94617 29.4657 6.94617C28.8691 6.94617 28.3856 6.46172 28.3856 5.86401V1.08216C28.3856 0.484449 28.8691 0 29.4657 0C30.0623 0 30.5458 0.484449 30.5458 1.08216V5.86401ZM48.9418 41.5331C48.6945 41.3896 48.5142 41.1535 48.4406 40.8769C48.367 40.6002 48.4061 40.3055 48.5493 40.0578C48.8477 39.5418 49.507 39.3658 50.0219 39.6646L54.1553 42.0555C54.6703 42.3543 54.8458 43.0149 54.5477 43.5309C54.2496 44.0469 53.5901 44.2229 53.0752 43.9241L48.9418 41.5331ZM52.6514 30.1181C52.366 30.1181 52.0924 30.0045 51.8906 29.8024C51.6888 29.6002 51.5755 29.326 51.5755 29.0401C51.5755 28.7542 51.6888 28.48 51.8906 28.2779C52.0924 28.0757 52.366 27.9622 52.6514 27.9622H57.4241C57.7094 27.9622 57.9831 28.0757 58.1849 28.2779C58.3867 28.48 58.5 28.7542 58.5 29.0401C58.5 29.326 58.3867 29.6002 58.1849 29.8024C57.9831 30.0045 57.7094 30.1181 57.4241 30.1181H52.6514ZM50.0219 18.3765C49.5072 18.6753 48.8478 18.4992 48.5493 17.9833C48.4061 17.7355 48.367 17.4409 48.4406 17.1642C48.5142 16.8875 48.6945 16.6515 48.9418 16.5079L53.0752 14.1171C53.3222 13.9786 53.6137 13.943 53.8867 14.018C54.1597 14.0931 54.3922 14.2727 54.5341 14.5182C54.676 14.7636 54.7158 15.0551 54.6449 15.3297C54.574 15.6043 54.3981 15.8399 54.1553 15.9856L50.0219 18.3765ZM8.90945 39.6647C9.42443 39.3659 10.0835 39.5419 10.382 40.0579C10.5252 40.3057 10.5643 40.6003 10.4907 40.877C10.4171 41.1536 10.2369 41.3897 9.98957 41.5332L5.85619 43.9242C5.60917 44.0627 5.31767 44.0983 5.04468 44.0232C4.77169 43.9482 4.53914 43.7685 4.39727 43.5231C4.2554 43.2777 4.2156 42.9862 4.28648 42.7116C4.35736 42.437 4.53323 42.2014 4.77607 42.0557L8.90945 39.6647ZM6.35281 27.9384C6.94939 27.9384 7.43292 28.4228 7.43292 29.0205C7.43292 29.6182 6.94939 30.1027 6.35281 30.1027H1.58012C0.983533 30.1027 0.5 29.6182 0.5 29.0205C0.5 28.4228 0.983533 27.9384 1.58012 27.9384H6.35281ZM9.98537 16.5081C10.2309 16.6513 10.4099 16.8861 10.4833 17.1612C10.5566 17.4362 10.5183 17.7292 10.3767 17.976C10.2351 18.2229 10.0018 18.4035 9.72767 18.4786C9.45356 18.5536 9.16095 18.5169 8.91377 18.3765L4.78039 15.9856C4.65793 15.9151 4.55053 15.8212 4.46432 15.7091C4.37811 15.597 4.31478 15.469 4.27795 15.3324C4.24111 15.1958 4.2315 15.0533 4.24965 14.913C4.26781 14.7726 4.31337 14.6373 4.38375 14.5146C4.4541 14.3919 4.54789 14.2843 4.65975 14.1979C4.77162 14.1115 4.89937 14.0481 5.03571 14.0112C5.17205 13.9743 5.31432 13.9647 5.45437 13.9828C5.59443 14.001 5.72954 14.0467 5.85199 14.1172L9.98537 16.5081ZM29.4654 22.9143C26.019 22.9143 23.225 25.7135 23.225 29.1669C23.225 32.6199 26.019 35.4192 29.4654 35.4192C32.9121 35.4192 35.7061 32.6199 35.7061 29.1669C35.7061 25.7138 32.9121 22.9143 29.4654 22.9143ZM37.0511 51.9562V52.7259C37.0511 54.1219 35.9147 55.2606 34.5212 55.2606H24.4101C23.0166 55.2606 21.8802 54.1219 21.8802 52.7259V51.9562H37.0511ZM27.4629 17.1427V19.1562C26.1604 19.4165 24.9217 19.9309 23.8173 20.6701L22.3953 19.2457L19.563 22.0834L20.9849 23.5077C20.2471 24.6142 19.7337 25.8553 19.474 27.1603H17.4642V31.1733H19.474C19.7337 32.4783 20.2471 33.7194 20.9849 34.8259L19.5633 36.2503L22.3953 39.088L23.8173 37.6635C24.9217 38.4027 26.1604 38.9171 27.4629 39.1774V41.1909H31.4683V39.1774C32.7709 38.9171 34.0096 38.4027 35.114 37.6635L36.5357 39.0879L39.368 36.2503L37.9463 34.8259C38.6841 33.7194 39.1975 32.4783 39.4573 31.1733H41.467V27.1603H39.4573C39.1974 25.8553 38.6839 24.6143 37.9461 23.5079L39.368 22.0834L36.5357 19.2457L35.1137 20.6702C34.0094 19.931 32.7708 19.4166 31.4683 19.1562V17.1427H27.4629Z" fill="#F3CD5F"/>
</g>
<defs>
<clipPath id="clip0_12051_124">
<rect width="58" height="60" fill="white" transform="translate(0.5)"/>
</clipPath>
</defs>
</svg>
