<svg width="61" height="60" viewBox="0 0 61 60" fill="none" xmlns="http://www.w3.org/2000/svg">
<path fill-rule="evenodd" clip-rule="evenodd" d="M52.6099 20.3492C53.1814 21.6565 53.635 23.0122 53.9654 24.4002L58.625 26.1938V33.8063L53.9642 35.6003C53.3727 38.0831 52.3891 40.4557 51.0505 42.6288L53.0789 47.1961L47.696 52.5791L43.1302 50.5512C40.9567 51.8904 38.5834 52.8742 36.0998 53.4655L34.3064 58.125H26.6939L24.8998 53.4642C22.417 52.8727 20.0444 51.8891 17.8713 50.5505L13.3039 52.5789L7.92113 47.1961L9.94906 42.6304C8.60987 40.4568 7.62606 38.0835 7.03473 35.5999L2.375 33.8063V26.1938L7.03531 24.3999C7.36566 23.0121 7.81925 21.6566 8.3907 20.3495L13.0231 23.1963C12.2014 25.3056 11.75 27.6 11.75 30.0001C11.75 40.3563 20.1438 48.75 30.5 48.75C40.8562 48.75 49.25 40.3563 49.25 30.0001C49.25 27.6 48.7987 25.3055 47.9768 23.1965L52.6099 20.3492ZM10.9497 10.0498C10.6975 9.93634 10.4364 10.1974 10.5499 10.4496L12.2273 14.1803C12.2777 14.2924 12.2581 14.4164 12.1755 14.5075L9.42734 17.5372C9.24043 17.7433 9.40754 18.0713 9.6841 18.0411L13.7505 17.5988C13.8091 17.5916 13.8685 17.6021 13.9211 17.6289C13.9737 17.6557 14.0171 17.6976 14.0457 17.7492L16.078 21.2991C16.2163 21.5405 16.5796 21.4829 16.6365 21.2106L17.4723 17.2065C17.4836 17.1486 17.5119 17.0954 17.5536 17.0536C17.5954 17.0119 17.6486 16.9836 17.7065 16.9723L21.7107 16.1365C21.983 16.0797 22.0406 15.7161 21.7992 15.578L18.2493 13.5457C18.1977 13.5171 18.1559 13.4737 18.1291 13.4211C18.1023 13.3685 18.0918 13.3091 18.099 13.2505L18.5414 9.18412C18.5715 8.90755 18.2435 8.74044 18.0375 8.92736L15.0077 11.6754C14.9645 11.7156 14.9102 11.742 14.852 11.7512C14.7937 11.7605 14.7339 11.7522 14.6804 11.7273L10.9497 10.0498ZM50.4502 10.4497C50.5637 10.1976 50.3026 9.93646 50.0504 10.0499L46.3197 11.7273C46.2662 11.7522 46.2065 11.7606 46.1482 11.7513C46.0899 11.7421 46.0357 11.7156 45.9925 11.6754L42.9628 8.92736C42.7568 8.74044 42.4288 8.90755 42.4589 9.18412L42.9012 13.2505C42.9084 13.3091 42.8979 13.3685 42.8711 13.4211C42.8444 13.4737 42.8025 13.5171 42.7509 13.5457L39.2011 15.578C38.9596 15.7163 39.0172 16.0797 39.2895 16.1365L43.2936 16.9723C43.3515 16.9836 43.4048 17.0119 43.4465 17.0536C43.4882 17.0954 43.5166 17.1486 43.5279 17.2065L44.3637 21.2107C44.4206 21.4831 44.7841 21.5406 44.9223 21.2992L46.9544 17.7493C46.9831 17.6977 47.0264 17.6558 47.079 17.629C47.1316 17.6022 47.191 17.5917 47.2496 17.5989L51.316 18.0413C51.5926 18.0714 51.7597 17.7434 51.5728 17.5374L48.8247 14.5076C48.7846 14.4643 48.7583 14.4101 48.749 14.3518C48.7398 14.2936 48.7481 14.2338 48.7728 14.1803L50.4502 10.4497ZM30.7828 2.06896L32.2346 5.89302C32.2548 5.94848 32.2911 5.99663 32.3389 6.03133C32.3866 6.06603 32.4436 6.08569 32.5026 6.08779L36.5881 6.28689C36.866 6.30037 36.9798 6.65052 36.7629 6.82478L33.5746 9.38732C33.5281 9.42368 33.4936 9.47309 33.4753 9.52923C33.4571 9.58537 33.456 9.64568 33.4722 9.70244L34.5453 13.6495C34.6183 13.918 34.3205 14.1344 34.0878 13.982L30.6655 11.7416C30.6165 11.7086 30.5588 11.691 30.4998 11.691C30.4408 11.691 30.3831 11.7086 30.3342 11.7416L26.9118 13.982C26.6791 14.1344 26.3813 13.918 26.4543 13.6497L27.5274 9.70255C27.5437 9.6458 27.5426 9.58549 27.5243 9.52935C27.5061 9.47321 27.4715 9.4238 27.425 9.38744L24.2368 6.8249C24.02 6.65064 24.1337 6.3006 24.4115 6.28701L28.4971 6.08791C28.5561 6.08581 28.6131 6.06615 28.6609 6.03145C28.7086 5.99675 28.7449 5.94859 28.7652 5.89314L30.217 2.06908C30.3153 1.81033 30.6847 1.81033 30.7828 2.06896ZM30.5 16.7721C27.3985 16.7721 24.8844 19.2864 24.8844 22.3877C24.8844 25.4891 27.3986 28.0034 30.5 28.0034C33.6014 28.0034 36.1156 25.4891 36.1156 22.3877C36.1156 19.2864 33.6015 16.7721 30.5 16.7721ZM20.7008 39.0871L40.2991 39.087C40.6311 39.087 40.9168 38.9494 41.1237 38.6897C41.3307 38.4301 41.4012 38.121 41.3273 37.7973C40.1988 32.8595 35.7798 29.1752 30.5 29.1752C25.2202 29.1752 20.8011 32.8595 19.6726 37.7973C19.5986 38.121 19.6691 38.4301 19.876 38.6897C20.0831 38.9494 20.3689 39.0871 20.7008 39.0871Z" fill="#F3CD5F"/>
</svg>
