<svg width="61" height="60" viewBox="0 0 61 60" fill="none" xmlns="http://www.w3.org/2000/svg">
<path d="M46.5041 20.7345H38.2184C38.184 22.9168 37.9723 25.0927 37.5856 27.2408H44.7106C45.766 25.2249 46.3776 23.0064 46.5041 20.7345ZM37.5706 12.3523C37.9639 14.5 38.1799 16.6764 38.2166 18.8595H46.5031C46.3756 16.587 45.7628 14.3682 44.7059 12.3523H37.5706ZM43.5397 10.4773C41.327 7.38606 38.0899 5.1794 34.4038 4.24953C35.7237 6.12321 36.6593 8.23993 37.1562 10.4773H43.5397ZM43.5462 29.1158H37.1712C36.6795 31.3451 35.7593 33.4577 34.4619 35.3361C38.1277 34.3964 41.3445 32.1937 43.5462 29.1158ZM25.3588 12.3523C24.9313 14.4961 24.6969 16.6739 24.6584 18.8595H36.3416C36.3031 16.6739 36.0687 14.4961 35.6413 12.3523H25.3588ZM36.3434 20.7345H24.6566C24.6927 22.9193 24.9227 25.0966 25.3438 27.2408H35.6562C36.0773 25.0966 36.3073 22.9193 36.3434 20.7345ZM26.5362 35.3361C25.2388 33.4577 24.3186 31.3451 23.8269 29.1158H17.4519C19.6536 32.1937 22.8704 34.3964 26.5362 35.3361ZM16.2903 27.2408H23.4153C23.0286 25.0927 22.817 22.9168 22.7825 20.7345H14.4959C14.6227 23.0065 15.2346 25.225 16.2903 27.2408ZM14.4969 18.8595H22.7834C22.8201 16.6764 23.0361 14.5 23.4294 12.3523H16.2941C15.2372 14.3682 14.6244 16.587 14.4969 18.8595ZM25.7816 29.1158C26.9319 33.3064 28.7759 35.8517 30.5 35.8517C32.2241 35.8517 34.0681 33.3064 35.2184 29.1158H25.7816ZM30.5 3.81641C28.7872 3.81641 26.9553 6.33266 25.8041 10.4773H35.1959C34.0447 6.33266 32.2128 3.81641 30.5 3.81641ZM17.4603 10.4773H23.8438C24.3402 8.24007 25.2751 6.12336 26.5944 4.24953C22.9089 5.1798 19.6726 7.38642 17.4603 10.4773ZM6.78125 25.6873V40.5345L15.725 49.4811H24.0894V43.9133L16.7084 36.5436C16.2702 36.1073 15.7064 35.8192 15.0961 35.7195C14.4858 35.6198 13.8596 35.7136 13.3053 35.9877L19.4169 42.0936C19.5878 42.2703 19.6824 42.507 19.6805 42.7528C19.6785 42.9987 19.5801 43.2339 19.4064 43.4078C19.2327 43.5818 18.9976 43.6805 18.7518 43.6828C18.506 43.6851 18.2691 43.5908 18.0922 43.4202L11.2081 36.5436L11.1997 36.5314L9.15969 34.4914C8.98386 34.3156 8.88505 34.0772 8.885 33.8286V27.7977L6.78125 25.6873ZM14.4275 56.2498H25.4394V51.3561H25.0353L25.0269 51.358L25.0175 51.3561H14.4275V56.2498ZM46.5725 51.3561H35.9825L35.9731 51.358L35.9647 51.3561H35.5606V56.2498H46.5725V51.3561ZM54.2188 25.6873L52.1122 27.7939V33.8248C52.1121 34.0735 52.0133 34.3119 51.8375 34.4877L49.7975 36.5277L49.7891 36.5398L42.905 43.4127C42.7255 43.5628 42.4962 43.6404 42.2624 43.6301C42.0285 43.6199 41.807 43.5225 41.6413 43.3572C41.4756 43.1918 41.3778 42.9705 41.367 42.7367C41.3562 42.5028 41.4333 42.2735 41.5831 42.0936L47.6947 35.9914C47.1408 35.7158 46.5143 35.6211 45.9037 35.7207C45.2931 35.8202 44.7292 36.1091 44.2916 36.5464L36.9106 43.917V49.4811H45.275L54.2188 40.5345V25.6873Z" fill="#F3CD5F"/>
</svg>
